<svg width="142" height="65" viewBox="0 0 142 65" fill="none" xmlns="http://www.w3.org/2000/svg">
<path d="M9.80025 16.3034L9.80025 44.2386L2.99553 44.2386L2.99553 16.3034L9.80025 16.3034ZM39.722 44.2386L32.9173 44.2386L21.5363 27.0079L21.5363 44.2386L14.7316 44.2386L14.7316 16.3034L21.5363 16.3034L32.9173 33.6137L32.9173 16.3034L39.722 16.3034L39.722 44.2386ZM64.7503 16.3034L64.7503 21.7552L57.3487 21.7552L57.3487 44.2386L50.544 44.2386L50.544 21.7552L43.1424 21.7552L43.1424 16.3034L64.7503 16.3034ZM74.9702 21.7552V27.4059L84.0829 27.4059L84.0829 32.6586L74.9702 32.6586L74.9702 38.7869L85.2767 38.7869V44.2386L68.1654 44.2386L68.1654 16.3034L85.2767 16.3034L85.2767 21.7552L74.9702 21.7552ZM114.685 44.2386L107.88 44.2386L96.4992 27.0079L96.4992 44.2386L89.6944 44.2386L89.6944 16.3034L96.4992 16.3034L107.88 33.6137L107.88 16.3034L114.685 16.3034L114.685 44.2386ZM139.713 16.3034V21.7552L132.312 21.7552L132.312 44.2386L125.507 44.2386L125.507 21.7552L118.105 21.7552L118.105 16.3034L139.713 16.3034Z" fill="#29303B"/>
<path d="M2.38653 54.9141C2.5635 54.5675 2.81421 54.2984 3.13866 54.1066C3.47048 53.9149 3.87236 53.8191 4.34428 53.8191L4.34428 54.8588H4.07882C2.95063 54.8588 2.38653 55.4708 2.38653 56.6949L2.38653 59.991H1.38L1.38 53.9297H2.38653L2.38653 54.9141ZM11.0366 56.728C11.0366 56.9198 11.0255 57.1225 11.0034 57.3364L6.15877 57.3364C6.19564 57.9337 6.39842 58.4019 6.76711 58.7411C7.14317 59.0729 7.59667 59.2388 8.12758 59.2388C8.56264 59.2388 8.92396 59.1393 9.21154 58.9402C9.50649 58.7337 9.71296 58.4609 9.83094 58.1217H10.9149C10.7527 58.7042 10.4282 59.1798 9.94155 59.5485C9.45487 59.9099 8.85022 60.0905 8.12758 60.0905C7.55242 60.0905 7.03625 59.9615 6.57908 59.7034C6.12927 59.4453 5.77533 59.0803 5.51724 58.6084C5.25916 58.1291 5.13012 57.576 5.13012 56.9493C5.13012 56.3225 5.25547 55.7731 5.50618 55.3012C5.75689 54.8293 6.10715 54.468 6.55695 54.2172C7.01413 53.9592 7.53767 53.8301 8.12758 53.8301C8.70274 53.8301 9.21154 53.9555 9.65397 54.2062C10.0964 54.4569 10.4356 54.8035 10.6716 55.2459C10.9149 55.681 11.0366 56.175 11.0366 56.728ZM9.99685 56.5179C9.99685 56.1344 9.91205 55.8063 9.74245 55.5335C9.57285 55.2533 9.34058 55.0431 9.04563 54.903C8.75805 54.7555 8.43728 54.6818 8.08334 54.6818C7.57454 54.6818 7.13949 54.844 6.77817 55.1685C6.42422 55.4929 6.22144 55.9427 6.16983 56.5179L9.99685 56.5179ZM19.6542 53.8191C20.1261 53.8191 20.5464 53.9186 20.9151 54.1177C21.2838 54.3094 21.5751 54.6007 21.7889 54.9915C22.0028 55.3823 22.1097 55.8579 22.1097 56.4183L22.1097 59.991H21.1142L21.1142 56.5621C21.1142 55.9575 20.963 55.4966 20.6607 55.1795C20.3658 54.8551 19.9639 54.6929 19.4551 54.6929C18.9316 54.6929 18.5149 54.8625 18.2052 55.2017C17.8955 55.5335 17.7407 56.0165 17.7407 56.6506L17.7407 59.991H16.7452L16.7452 56.5621C16.7452 55.9575 16.594 55.4966 16.2917 55.1795C15.9968 54.8551 15.5949 54.6929 15.0861 54.6929C14.5626 54.6929 14.1459 54.8625 13.8362 55.2017C13.5265 55.5335 13.3717 56.0165 13.3717 56.6506L13.3717 59.991H12.3652L12.3652 53.9297H13.3717L13.3717 54.8035C13.5708 54.4864 13.8362 54.2431 14.1681 54.0735C14.5073 53.9039 14.8796 53.8191 15.2852 53.8191C15.794 53.8191 16.2438 53.9334 16.6346 54.1619C17.0254 54.3905 17.3167 54.726 17.5084 55.1685C17.678 54.7408 17.9582 54.409 18.349 54.173C18.7398 53.937 19.1749 53.8191 19.6542 53.8191ZM23.3847 56.9382C23.3847 56.3188 23.51 55.7768 23.7608 55.3123C24.0115 54.8403 24.3544 54.4753 24.7894 54.2172C25.2318 53.9592 25.7222 53.8301 26.2605 53.8301C26.7914 53.8301 27.2523 53.9444 27.6431 54.173C28.0339 54.4016 28.3252 54.6892 28.5169 55.0357V53.9297H29.5345L29.5345 59.991H28.5169L28.5169 58.8628C28.3178 59.2167 28.0192 59.5117 27.621 59.7476C27.2302 59.9762 26.773 60.0905 26.2494 60.0905C25.7111 60.0905 25.2245 59.9578 24.7894 59.6923C24.3544 59.4269 24.0115 59.0545 23.7608 58.5752C23.51 58.0959 23.3847 57.5502 23.3847 56.9382ZM28.5169 56.9493C28.5169 56.4921 28.4247 56.0939 28.2404 55.7547C28.056 55.4155 27.8053 55.1574 27.4882 54.9804C27.1785 54.7961 26.8357 54.7039 26.4596 54.7039C26.0835 54.7039 25.7406 54.7924 25.4309 54.9694C25.1212 55.1464 24.8742 55.4044 24.6899 55.7436C24.5055 56.0828 24.4133 56.481 24.4133 56.9382C24.4133 57.4027 24.5055 57.8083 24.6899 58.1549C24.8742 58.4941 25.1212 58.7558 25.4309 58.9402C25.7406 59.1172 26.0835 59.2057 26.4596 59.2057C26.8357 59.2057 27.1785 59.1172 27.4882 58.9402C27.8053 58.7558 28.056 58.4941 28.2404 58.1549C28.4247 57.8083 28.5169 57.4064 28.5169 56.9493ZM32.2419 54.9141C32.4189 54.5675 32.6696 54.2984 32.9941 54.1066C33.3259 53.9149 33.7278 53.8191 34.1997 53.8191L34.1997 54.8588H33.9342C32.806 54.8588 32.2419 55.4708 32.2419 56.6949L32.2419 59.991H31.2354L31.2354 53.9297L32.2419 53.9297V54.9141ZM38.7462 59.991L36.3681 57.3143L36.3681 59.991L35.3616 59.991L35.3616 51.806L36.3681 51.806L36.3681 56.6174L38.7019 53.9297L40.1067 53.9297L37.253 56.9493L40.1177 59.991L38.7462 59.991ZM40.6779 56.9382C40.6779 56.3188 40.8033 55.7768 41.054 55.3123C41.3047 54.8403 41.6476 54.4753 42.0826 54.2172C42.5251 53.9592 43.0154 53.8301 43.5537 53.8301C44.0846 53.8301 44.5455 53.9444 44.9363 54.173C45.3271 54.4016 45.6184 54.6892 45.8101 55.0357L45.8101 53.9297H46.8277L46.8277 59.991H45.8101V58.8628C45.611 59.2167 45.3124 59.5117 44.9142 59.7476C44.5234 59.9762 44.0662 60.0905 43.5427 60.0905C43.0044 60.0905 42.5177 59.9578 42.0826 59.6923C41.6476 59.4269 41.3047 59.0545 41.054 58.5752C40.8033 58.0959 40.6779 57.5502 40.6779 56.9382ZM45.8101 56.9493C45.8101 56.4921 45.718 56.0939 45.5336 55.7547C45.3493 55.4155 45.0986 55.1574 44.7815 54.9804C44.4718 54.7961 44.1289 54.7039 43.7528 54.7039C43.3768 54.7039 43.0339 54.7924 42.7242 54.9694C42.4145 55.1464 42.1674 55.4044 41.9831 55.7436C41.7988 56.0828 41.7066 56.481 41.7066 56.9382C41.7066 57.4027 41.7988 57.8083 41.9831 58.1549C42.1674 58.4941 42.4145 58.7558 42.7242 58.9402C43.0339 59.1172 43.3768 59.2057 43.7528 59.2057C44.1289 59.2057 44.4718 59.1172 44.7815 58.9402C45.0986 58.7558 45.3493 58.4941 45.5336 58.1549C45.718 57.8083 45.8101 57.4064 45.8101 56.9493ZM49.5352 55.0579C49.7417 54.6965 50.044 54.4016 50.4422 54.173C50.8404 53.9444 51.2938 53.8301 51.8026 53.8301C52.3483 53.8301 52.8387 53.9592 53.2737 54.2172C53.7088 54.4753 54.0517 54.8403 54.3024 55.3123C54.5531 55.7768 54.6784 56.3188 54.6784 56.9382C54.6784 57.5502 54.5531 58.0959 54.3024 58.5752C54.0517 59.0545 53.7051 59.4269 53.2627 59.6923C52.8276 59.9578 52.3409 60.0905 51.8026 60.0905C51.2791 60.0905 50.8182 59.9762 50.42 59.7476C50.0292 59.519 49.7343 59.2278 49.5352 58.8738V59.991H48.5287L48.5287 51.806H49.5352L49.5352 55.0579ZM53.6498 56.9382C53.6498 56.481 53.5576 56.0828 53.3733 55.7436C53.1889 55.4044 52.9382 55.1464 52.6211 54.9694C52.3114 54.7924 51.9686 54.7039 51.5925 54.7039C51.2238 54.7039 50.8809 54.7961 50.5638 54.9804C50.2541 55.1574 50.0034 55.4192 49.8117 55.7658C49.6274 56.105 49.5352 56.4995 49.5352 56.9493C49.5352 57.4064 49.6274 57.8083 49.8117 58.1549C50.0034 58.4941 50.2541 58.7558 50.5638 58.9402C50.8809 59.1172 51.2238 59.2057 51.5925 59.2057C51.9686 59.2057 52.3114 59.1172 52.6211 58.9402C52.9382 58.7558 53.1889 58.4941 53.3733 58.1549C53.5576 57.8083 53.6498 57.4027 53.6498 56.9382ZM57.0098 51.806L57.0098 59.991H56.0033L56.0033 51.806L57.0098 51.806ZM64.2557 56.728C64.2557 56.9198 64.2446 57.1225 64.2225 57.3364L59.3779 57.3364C59.4147 57.9337 59.6175 58.4019 59.9862 58.7411C60.3623 59.0729 60.8158 59.2388 61.3467 59.2388C61.7818 59.2388 62.1431 59.1393 62.4306 58.9402C62.7256 58.7337 62.9321 58.4609 63.0501 58.1217H64.134C63.9718 58.7042 63.6473 59.1798 63.1607 59.5485C62.674 59.9099 62.0693 60.0905 61.3467 60.0905C60.7715 60.0905 60.2554 59.9615 59.7982 59.7034C59.3484 59.4453 58.9944 59.0803 58.7364 58.6084C58.4783 58.1291 58.3492 57.576 58.3492 56.9493C58.3492 56.3225 58.4746 55.7731 58.7253 55.3012C58.976 54.8293 59.3263 54.468 59.7761 54.2172C60.2332 53.9592 60.7568 53.8301 61.3467 53.8301C61.9219 53.8301 62.4306 53.9555 62.8731 54.2062C63.3155 54.4569 63.6547 54.8035 63.8907 55.2459C64.134 55.681 64.2557 56.175 64.2557 56.728ZM63.216 56.5179C63.216 56.1344 63.1312 55.8063 62.9616 55.5335C62.792 55.2533 62.5597 55.0431 62.2647 54.903C61.9772 54.7555 61.6564 54.6818 61.3025 54.6818C60.7937 54.6818 60.3586 54.844 59.9973 55.1685C59.6433 55.4929 59.4406 55.9427 59.3889 56.5179L63.216 56.5179ZM68.157 56.9382C68.157 56.3188 68.2824 55.7768 68.5331 55.3123C68.7838 54.8403 69.1267 54.4753 69.5617 54.2172C70.0042 53.9592 70.4945 53.8301 71.0328 53.8301C71.5637 53.8301 72.0246 53.9444 72.4154 54.173C72.8062 54.4016 73.0975 54.6892 73.2892 55.0357V53.9297H74.3068V59.991H73.2892V58.8628C73.0901 59.2167 72.7915 59.5117 72.3933 59.7476C72.0025 59.9762 71.5453 60.0905 71.0218 60.0905C70.4835 60.0905 69.9968 59.9578 69.5617 59.6923C69.1267 59.4269 68.7838 59.0545 68.5331 58.5752C68.2824 58.0959 68.157 57.5502 68.157 56.9382ZM73.2892 56.9493C73.2892 56.4921 73.197 56.0939 73.0127 55.7547C72.8283 55.4155 72.5776 55.1574 72.2606 54.9804C71.9509 54.7961 71.608 54.7039 71.2319 54.7039C70.8558 54.7039 70.513 54.7924 70.2033 54.9694C69.8936 55.1464 69.6465 55.4044 69.4622 55.7436C69.2778 56.0828 69.1857 56.481 69.1857 56.9382C69.1857 57.4027 69.2778 57.8083 69.4622 58.1549C69.6465 58.4941 69.8936 58.7558 70.2033 58.9402C70.513 59.1172 70.8558 59.2057 71.2319 59.2057C71.608 59.2057 71.9509 59.1172 72.2606 58.9402C72.5776 58.7558 72.8283 58.4941 73.0127 58.1549C73.197 57.8083 73.2892 57.4064 73.2892 56.9493ZM75.6317 56.9493C75.6317 56.3225 75.757 55.7768 76.0077 55.3123C76.2584 54.8403 76.605 54.4753 77.0474 54.2172C77.4973 53.9592 78.0097 53.8301 78.5849 53.8301C79.3297 53.8301 79.9417 54.0108 80.421 54.3721C80.9077 54.7334 81.2284 55.2348 81.3833 55.8764L80.2993 55.8764C80.1961 55.5077 79.9933 55.2164 79.691 55.0026C79.396 54.7887 79.0273 54.6818 78.5849 54.6818C78.0097 54.6818 77.5452 54.8809 77.1912 55.2791C76.8373 55.6699 76.6603 56.2266 76.6603 56.9493C76.6603 57.6793 76.8373 58.2434 77.1912 58.6416C77.5452 59.0397 78.0097 59.2388 78.5849 59.2388C79.0273 59.2388 79.396 59.1356 79.691 58.9291C79.9859 58.7227 80.1887 58.4277 80.2993 58.0443L81.3833 58.0443C81.221 58.6637 80.8966 59.1614 80.4099 59.5375C79.9232 59.9062 79.3149 60.0905 78.5849 60.0905C78.0097 60.0905 77.4973 59.9615 77.0474 59.7034C76.605 59.4453 76.2584 59.0803 76.0077 58.6084C75.757 58.1364 75.6317 57.5834 75.6317 56.9493ZM85.7348 53.8191C86.192 53.8191 86.6049 53.9186 86.9736 54.1177C87.3423 54.3094 87.6299 54.6007 87.8364 54.9915C88.0502 55.3823 88.1571 55.8579 88.1571 56.4183V59.991H87.1616V56.5621C87.1616 55.9575 87.0105 55.4966 86.7082 55.1795C86.4058 54.8551 85.9929 54.6929 85.4694 54.6929C84.9384 54.6929 84.5144 54.8588 84.1974 55.1906C83.8877 55.5224 83.7328 56.0054 83.7328 56.6396V59.991H82.7263L82.7263 51.806H83.7328L83.7328 54.7924C83.9319 54.4827 84.2047 54.2431 84.5513 54.0735C84.9053 53.9039 85.2998 53.8191 85.7348 53.8191ZM90.3211 52.9453C90.1294 52.9453 89.9672 52.8789 89.8345 52.7462C89.7017 52.6134 89.6354 52.4512 89.6354 52.2595C89.6354 52.0678 89.7017 51.9055 89.8345 51.7728C89.9672 51.6401 90.1294 51.5737 90.3211 51.5737C90.5055 51.5737 90.6603 51.6401 90.7857 51.7728C90.9184 51.9055 90.9848 52.0678 90.9848 52.2595C90.9848 52.4512 90.9184 52.6134 90.7857 52.7462C90.6603 52.8789 90.5055 52.9453 90.3211 52.9453ZM90.8078 53.9297V59.991H89.8013V53.9297H90.8078ZM98.0536 56.728C98.0536 56.9198 98.0426 57.1225 98.0205 57.3364L93.1758 57.3364C93.2127 57.9337 93.4155 58.4019 93.7842 58.7411C94.1603 59.0729 94.6137 59.2388 95.1447 59.2388C95.5797 59.2388 95.941 59.1393 96.2286 58.9402C96.5236 58.7337 96.73 58.4609 96.848 58.1217L97.932 58.1217C97.7698 58.7042 97.4453 59.1798 96.9586 59.5485C96.472 59.9099 95.8673 60.0905 95.1447 60.0905C94.5695 60.0905 94.0533 59.9615 93.5962 59.7034C93.1464 59.4453 92.7924 59.0803 92.5343 58.6084C92.2762 58.1291 92.1472 57.576 92.1472 56.9493C92.1472 56.3225 92.2726 55.7731 92.5233 55.3012C92.774 54.8293 93.1242 54.468 93.574 54.2172C94.0312 53.9592 94.5548 53.8301 95.1447 53.8301C95.7198 53.8301 96.2286 53.9555 96.671 54.2062C97.1135 54.4569 97.4527 54.8035 97.6886 55.2459C97.932 55.681 98.0536 56.175 98.0536 56.728ZM97.0139 56.5179C97.0139 56.1344 96.9291 55.8063 96.7595 55.5335C96.5899 55.2533 96.3577 55.0431 96.0627 54.903C95.7751 54.7555 95.4544 54.6818 95.1004 54.6818C94.5916 54.6818 94.1566 54.844 93.7953 55.1685C93.4413 55.4929 93.2385 55.9427 93.1869 56.5179L97.0139 56.5179ZM101.639 59.0619L103.519 53.9297H104.592L102.214 59.991H101.041L98.6633 53.9297H99.7472L101.639 59.0619ZM111.113 56.728C111.113 56.9198 111.102 57.1225 111.08 57.3364L106.235 57.3364C106.272 57.9337 106.475 58.4019 106.843 58.7411C107.219 59.0729 107.673 59.2388 108.204 59.2388C108.639 59.2388 109 59.1393 109.288 58.9402C109.583 58.7337 109.789 58.4609 109.907 58.1217L110.991 58.1217C110.829 58.7042 110.504 59.1798 110.018 59.5485C109.531 59.9099 108.926 60.0905 108.204 60.0905C107.629 60.0905 107.112 59.9615 106.655 59.7034C106.205 59.4453 105.851 59.0803 105.593 58.6084C105.335 58.1291 105.206 57.576 105.206 56.9493C105.206 56.3225 105.332 55.7731 105.582 55.3012C105.833 54.8293 106.183 54.468 106.633 54.2172C107.09 53.9592 107.614 53.8301 108.204 53.8301C108.779 53.8301 109.288 53.9555 109.73 54.2062C110.173 54.4569 110.512 54.8035 110.748 55.2459C110.991 55.681 111.113 56.175 111.113 56.728ZM110.073 56.5179C110.073 56.1344 109.988 55.8063 109.819 55.5335C109.649 55.2533 109.417 55.0431 109.122 54.903C108.834 54.7555 108.513 54.6818 108.159 54.6818C107.651 54.6818 107.216 54.844 106.854 55.1685C106.5 55.4929 106.298 55.9427 106.246 56.5179H110.073ZM119.73 53.8191C120.202 53.8191 120.623 53.9186 120.991 54.1177C121.36 54.3094 121.651 54.6007 121.865 54.9915C122.079 55.3823 122.186 55.8579 122.186 56.4183V59.991H121.19V56.5621C121.19 55.9575 121.039 55.4966 120.737 55.1795C120.442 54.8551 120.04 54.6929 119.531 54.6929C119.008 54.6929 118.591 54.8625 118.281 55.2017C117.972 55.5335 117.817 56.0165 117.817 56.6506V59.991H116.821V56.5621C116.821 55.9575 116.67 55.4966 116.368 55.1795C116.073 54.8551 115.671 54.6929 115.162 54.6929C114.639 54.6929 114.222 54.8625 113.912 55.2017C113.603 55.5335 113.448 56.0165 113.448 56.6506V59.991H112.441V53.9297H113.448V54.8035C113.647 54.4864 113.912 54.2431 114.244 54.0735C114.583 53.9039 114.956 53.8191 115.361 53.8191C115.87 53.8191 116.32 53.9334 116.711 54.1619C117.102 54.3905 117.393 54.726 117.585 55.1685C117.754 54.7408 118.034 54.409 118.425 54.173C118.816 53.937 119.251 53.8191 119.73 53.8191ZM129.367 56.728C129.367 56.9198 129.356 57.1225 129.334 57.3364L124.489 57.3364C124.526 57.9337 124.729 58.4019 125.098 58.7411C125.474 59.0729 125.927 59.2388 126.458 59.2388C126.893 59.2388 127.255 59.1393 127.542 58.9402C127.837 58.7337 128.044 58.4609 128.162 58.1217H129.246C129.083 58.7042 128.759 59.1798 128.272 59.5485C127.786 59.9099 127.181 60.0905 126.458 60.0905C125.883 60.0905 125.367 59.9615 124.91 59.7034C124.46 59.4453 124.106 59.0803 123.848 58.6084C123.59 58.1291 123.461 57.576 123.461 56.9493C123.461 56.3225 123.586 55.7731 123.837 55.3012C124.088 54.8293 124.438 54.468 124.888 54.2172C125.345 53.9592 125.868 53.8301 126.458 53.8301C127.033 53.8301 127.542 53.9555 127.985 54.2062C128.427 54.4569 128.766 54.8035 129.002 55.2459C129.246 55.681 129.367 56.175 129.367 56.728ZM128.328 56.5179C128.328 56.1344 128.243 55.8063 128.073 55.5335C127.904 55.2533 127.671 55.0431 127.376 54.903C127.089 54.7555 126.768 54.6818 126.414 54.6818C125.905 54.6818 125.47 54.844 125.109 55.1685C124.755 55.4929 124.552 55.9427 124.501 56.5179L128.328 56.5179ZM133.649 53.8191C134.386 53.8191 134.984 54.044 135.441 54.4938C135.898 54.9362 136.127 55.5777 136.127 56.4183V59.991L135.131 59.991V56.5621C135.131 55.9575 134.98 55.4966 134.678 55.1795C134.375 54.8551 133.962 54.6929 133.439 54.6929C132.908 54.6929 132.484 54.8588 132.167 55.1906C131.857 55.5224 131.702 56.0054 131.702 56.6396V59.991H130.696L130.696 53.9297L131.702 53.9297V54.7924C131.901 54.4827 132.171 54.2431 132.51 54.0735C132.856 53.9039 133.236 53.8191 133.649 53.8191ZM138.999 54.7592L138.999 58.3319C138.999 58.6268 139.061 58.837 139.187 58.9623C139.312 59.0803 139.53 59.1393 139.839 59.1393H140.58V59.991H139.673C139.113 59.991 138.693 59.8619 138.412 59.6038C138.132 59.3458 137.992 58.9218 137.992 58.3319L137.992 54.7592H137.207V53.9297H137.992V52.4033H138.999V53.9297L140.58 53.9297V54.7592L138.999 54.7592Z" fill="#29303B"/>
</svg>
