<svg width="160" height="46" viewBox="0 0 160 46" fill="none" xmlns="http://www.w3.org/2000/svg">
<path d="M37.3711 26V13.1867C37.3711 12.2975 37.5696 11.4957 37.9665 10.7812C38.3635 10.0667 38.9192 9.50306 39.6337 9.09024C40.3641 8.66154 41.2294 8.44719 42.2297 8.44719C42.7695 8.44719 43.2617 8.51864 43.7063 8.66154C44.1509 8.80444 44.5796 9.03467 44.9924 9.35222L43.1824 12.0197C43.0236 11.9085 42.8648 11.8291 42.706 11.7815C42.5631 11.7339 42.4044 11.7101 42.2297 11.7101C41.8328 11.7101 41.5311 11.8291 41.3247 12.0673C41.1183 12.2896 41.0151 12.5992 41.0151 12.9962V26H37.3711ZM34.8227 17.5213V14.4252H46.469V17.5213H34.8227ZM44.9448 26V14.4252H48.5887V26H44.9448ZM46.7787 13.5916C46.2388 13.5916 45.7863 13.409 45.4211 13.0438C45.0718 12.6627 44.8972 12.2023 44.8972 11.6624C44.8972 11.1226 45.0718 10.6701 45.4211 10.3049C45.7863 9.9397 46.2388 9.75711 46.7787 9.75711C47.3344 9.75711 47.7869 9.9397 48.1362 10.3049C48.4855 10.6701 48.6602 11.1226 48.6602 11.6624C48.6602 12.2023 48.4855 12.6627 48.1362 13.0438C47.7869 13.409 47.3344 13.5916 46.7787 13.5916ZM56.0587 26.2382C54.9632 26.2382 53.9867 25.9762 53.1293 25.4522C52.2878 24.9283 51.6209 24.2138 51.1287 23.3087C50.6524 22.4037 50.4142 21.3716 50.4142 20.2126C50.4142 19.0535 50.6524 18.0215 51.1287 17.1164C51.6209 16.2114 52.2878 15.4969 53.1293 14.9729C53.9867 14.449 54.9632 14.187 56.0587 14.187C56.8526 14.187 57.5671 14.3378 58.2022 14.6395C58.8532 14.9412 59.3851 15.3619 59.7979 15.9018C60.2266 16.4257 60.4648 17.0291 60.5124 17.7118V22.5942C60.4648 23.277 60.2346 23.8962 59.8218 24.4519C59.4089 24.9918 58.877 25.4284 58.2261 25.7618C57.5751 26.0794 56.8526 26.2382 56.0587 26.2382ZM56.7018 22.9515C57.2258 22.9515 57.6783 22.8403 58.0593 22.618C58.4404 22.3799 58.7421 22.0544 58.9644 21.6416C59.1867 21.2287 59.2978 20.7524 59.2978 20.2126C59.2978 19.6727 59.1867 19.2043 58.9644 18.8074C58.758 18.3946 58.4563 18.0691 58.0593 17.8309C57.6783 17.5928 57.2337 17.4737 56.7256 17.4737C56.2175 17.4737 55.765 17.5928 55.3681 17.8309C54.987 18.0691 54.6774 18.3946 54.4392 18.8074C54.2169 19.2202 54.1058 19.6886 54.1058 20.2126C54.1058 20.7365 54.2169 21.2049 54.4392 21.6178C54.6615 22.0306 54.9711 22.3561 55.3681 22.5942C55.765 22.8324 56.2096 22.9515 56.7018 22.9515ZM62.7274 26H59.1549V22.88L59.7027 20.0697L59.0834 17.2593V8.70918H62.7274V26ZM70.8661 26.262C69.6753 26.262 68.5956 26 67.6271 25.476C66.6744 24.9362 65.9202 24.2058 65.3645 23.2849C64.8088 22.364 64.5309 21.332 64.5309 20.1888C64.5309 19.0456 64.8088 18.0215 65.3645 17.1164C65.9202 16.2114 66.6744 15.4969 67.6271 14.9729C68.5797 14.4331 69.6594 14.1632 70.8661 14.1632C72.0728 14.1632 73.1525 14.4252 74.1052 14.9491C75.0578 15.4731 75.812 16.1955 76.3678 17.1164C76.9235 18.0215 77.2013 19.0456 77.2013 20.1888C77.2013 21.332 76.9235 22.364 76.3678 23.2849C75.812 24.2058 75.0578 24.9362 74.1052 25.476C73.1525 26 72.0728 26.262 70.8661 26.262ZM70.8661 22.9515C71.3901 22.9515 71.8505 22.8403 72.2475 22.618C72.6444 22.3799 72.9461 22.0544 73.1525 21.6416C73.3748 21.2129 73.486 20.7286 73.486 20.1888C73.486 19.6489 73.3748 19.1805 73.1525 18.7836C72.9302 18.3708 72.6206 18.0532 72.2237 17.8309C71.8426 17.5928 71.3901 17.4737 70.8661 17.4737C70.358 17.4737 69.9055 17.5928 69.5086 17.8309C69.1116 18.0532 68.802 18.3708 68.5797 18.7836C68.3575 19.1964 68.2463 19.6727 68.2463 20.2126C68.2463 20.7365 68.3575 21.2129 68.5797 21.6416C68.802 22.0544 69.1116 22.3799 69.5086 22.618C69.9055 22.8403 70.358 22.9515 70.8661 22.9515ZM79.5039 21.5225V18.3311H87.935V21.5225H79.5039ZM97.1738 26.2382C96.3957 26.2382 95.6813 26.0794 95.0303 25.7618C94.3793 25.4284 93.8474 24.9918 93.4346 24.4519C93.0217 23.8962 92.7836 23.277 92.7201 22.5942V17.7118C92.7836 17.0291 93.0217 16.4257 93.4346 15.9018C93.8474 15.3619 94.3793 14.9412 95.0303 14.6395C95.6813 14.3378 96.3957 14.187 97.1738 14.187C98.2693 14.187 99.2379 14.449 100.079 14.9729C100.937 15.4969 101.604 16.2114 102.08 17.1164C102.572 18.0215 102.818 19.0535 102.818 20.2126C102.818 21.3716 102.572 22.4037 102.08 23.3087C101.604 24.2138 100.937 24.9283 100.079 25.4522C99.2379 25.9762 98.2693 26.2382 97.1738 26.2382ZM96.5307 22.9515C97.0388 22.9515 97.4834 22.8324 97.8644 22.5942C98.2614 22.3561 98.571 22.0306 98.7933 21.6178C99.0156 21.2049 99.1267 20.7365 99.1267 20.2126C99.1267 19.6727 99.0156 19.1964 98.7933 18.7836C98.571 18.3708 98.2614 18.0532 97.8644 17.8309C97.4834 17.5928 97.0388 17.4737 96.5307 17.4737C96.0226 17.4737 95.5701 17.5928 95.1732 17.8309C94.7762 18.0532 94.4666 18.3708 94.2443 18.7836C94.0379 19.1964 93.9347 19.6727 93.9347 20.2126C93.9347 20.7524 94.0458 21.2287 94.2681 21.6416C94.4904 22.0544 94.7921 22.3799 95.1732 22.618C95.5701 22.8403 96.0226 22.9515 96.5307 22.9515ZM90.5051 26V8.70918H94.1491V17.2593L93.5536 20.0697L94.1014 22.88V26H90.5051ZM104.669 26V14.4252H108.313V26H104.669ZM106.503 12.8294C105.932 12.8294 105.455 12.6389 105.074 12.2578C104.709 11.8609 104.527 11.3846 104.527 10.8289C104.527 10.2573 104.709 9.78092 105.074 9.39986C105.455 9.01879 105.932 8.82826 106.503 8.82826C107.075 8.82826 107.543 9.01879 107.909 9.39986C108.274 9.78092 108.456 10.2573 108.456 10.8289C108.456 11.3846 108.274 11.8609 107.909 12.2578C107.543 12.6389 107.075 12.8294 106.503 12.8294ZM110.141 23.8565L115.952 16.5448H120.382L114.571 23.8565H110.141ZM110.141 26V23.8565L112.737 22.9515H120.239V26H110.141ZM110.57 17.4737V14.4252H120.382V16.5448L117.81 17.4737H110.57ZM129.991 26V19.4028C129.991 18.7995 129.8 18.3152 129.419 17.95C129.054 17.5689 128.586 17.3784 128.014 17.3784C127.617 17.3784 127.268 17.4657 126.966 17.6404C126.665 17.7992 126.426 18.0373 126.252 18.3549C126.077 18.6566 125.99 19.0059 125.99 19.4028L124.585 18.7121C124.585 17.8071 124.783 17.0132 125.18 16.3305C125.577 15.6477 126.125 15.1238 126.823 14.7586C127.538 14.3775 128.34 14.187 129.229 14.187C130.086 14.187 130.84 14.3934 131.491 14.8062C132.158 15.2032 132.682 15.7351 133.063 16.4019C133.444 17.0688 133.635 17.7992 133.635 18.593V26H129.991ZM122.346 26V14.4252H125.99V26H122.346ZM141.691 26.262C140.437 26.262 139.317 26.0079 138.333 25.4999C137.365 24.9759 136.602 24.2535 136.047 23.3325C135.491 22.4116 135.213 21.3716 135.213 20.2126C135.213 19.0535 135.483 18.0215 136.023 17.1164C136.579 16.1955 137.325 15.4731 138.262 14.9491C139.198 14.4252 140.254 14.1632 141.429 14.1632C142.572 14.1632 143.581 14.4093 144.454 14.9015C145.327 15.3937 146.01 16.0764 146.502 16.9497C147.01 17.823 147.264 18.8233 147.264 19.9506C147.264 20.157 147.248 20.3793 147.217 20.6175C147.201 20.8397 147.161 21.1017 147.098 21.4034L137.118 21.4272V18.9265L145.549 18.9027L143.978 19.9506C143.962 19.2837 143.858 18.7359 143.668 18.3073C143.477 17.8627 143.192 17.5292 142.811 17.307C142.445 17.0688 141.993 16.9497 141.453 16.9497C140.881 16.9497 140.381 17.0847 139.953 17.3546C139.54 17.6086 139.214 17.9738 138.976 18.4502C138.754 18.9265 138.643 19.506 138.643 20.1888C138.643 20.8715 138.762 21.459 139 21.9512C139.254 22.4275 139.603 22.8006 140.048 23.0706C140.508 23.3246 141.048 23.4516 141.667 23.4516C142.239 23.4516 142.755 23.3564 143.215 23.1658C143.676 22.9594 144.081 22.6577 144.43 22.2608L146.431 24.2614C145.859 24.9283 145.168 25.4284 144.359 25.7618C143.549 26.0953 142.66 26.262 141.691 26.262ZM153.239 26.2858C152.556 26.2858 151.881 26.1985 151.214 26.0238C150.563 25.8492 149.952 25.6031 149.38 25.2855C148.825 24.9521 148.348 24.571 147.951 24.1423L150.023 22.0465C150.405 22.4593 150.857 22.7848 151.381 23.0229C151.905 23.2452 152.477 23.3564 153.096 23.3564C153.524 23.3564 153.85 23.2929 154.072 23.1658C154.31 23.0388 154.43 22.8642 154.43 22.6419C154.43 22.3561 154.287 22.1417 154.001 21.9988C153.731 21.84 153.382 21.7051 152.953 21.5939C152.524 21.4669 152.072 21.332 151.595 21.1891C151.119 21.0462 150.666 20.8477 150.238 20.5936C149.809 20.3396 149.46 19.9903 149.19 19.5457C148.92 19.0853 148.785 18.5057 148.785 17.8071C148.785 17.0609 148.976 16.4178 149.357 15.878C149.738 15.3222 150.277 14.8856 150.976 14.5681C151.675 14.2505 152.492 14.0917 153.429 14.0917C154.414 14.0917 155.319 14.2664 156.144 14.6157C156.986 14.9491 157.669 15.4493 158.193 16.1161L156.12 18.212C155.755 17.7833 155.342 17.4816 154.882 17.307C154.437 17.1323 154.001 17.045 153.572 17.045C153.159 17.045 152.85 17.1085 152.643 17.2355C152.437 17.3466 152.334 17.5134 152.334 17.7357C152.334 17.9738 152.469 18.1644 152.739 18.3073C153.008 18.4502 153.358 18.5772 153.786 18.6883C154.215 18.7995 154.668 18.9344 155.144 19.0932C155.62 19.252 156.073 19.4663 156.502 19.7362C156.93 20.0062 157.28 20.3714 157.549 20.8318C157.819 21.2764 157.954 21.8639 157.954 22.5942C157.954 23.7215 157.526 24.6186 156.668 25.2855C155.827 25.9524 154.684 26.2858 153.239 26.2858Z" fill="white"/>
<path d="M3 33.806V15.8287M11.4948 3.18532H7.24738H3V15.8287M3 15.8287H11.4948" stroke="white" stroke-width="5.92657"/>
<path d="M13.4703 3.18532C22.3601 3.18532 22.5577 15.8287 13.4703 15.8287C24.7308 15.8287 24.7308 30.8427 13.4703 30.8427H7.74126" stroke="white" stroke-width="5.92657"/>
<path d="M92.5886 41.5571V30.5483H94.0586V41.5571H92.5886ZM90.6775 35.1381V33.7987H95.9696V35.1381H90.6775ZM99.043 41.5571V33.7987H100.513V41.5571H99.043ZM100.513 37.1307L99.9577 36.8857C99.9577 35.8948 100.186 35.1054 100.644 34.5174C101.101 33.9294 101.76 33.6354 102.62 33.6354C103.012 33.6354 103.366 33.7061 103.682 33.8477C103.997 33.9784 104.291 34.2016 104.564 34.5174L103.6 35.5137C103.437 35.3395 103.257 35.2143 103.061 35.1381C102.865 35.0618 102.636 35.0237 102.375 35.0237C101.831 35.0237 101.384 35.1979 101.036 35.5464C100.687 35.8948 100.513 36.423 100.513 37.1307ZM110.276 41.7205C109.568 41.7205 108.926 41.5462 108.349 41.1978C107.772 40.8385 107.314 40.3539 106.977 39.7441C106.65 39.1343 106.487 38.4483 106.487 37.6861C106.487 36.9239 106.65 36.2378 106.977 35.6281C107.314 35.0183 107.766 34.5337 108.333 34.1744C108.91 33.815 109.558 33.6354 110.276 33.6354C110.864 33.6354 111.387 33.7606 111.844 34.011C112.312 34.2506 112.688 34.5882 112.971 35.0237C113.254 35.4484 113.412 35.9438 113.445 36.5101V38.8458C113.412 39.4011 113.254 39.8966 112.971 40.3321C112.699 40.7677 112.329 41.1107 111.861 41.3611C111.403 41.6007 110.875 41.7205 110.276 41.7205ZM110.521 40.3321C111.251 40.3321 111.839 40.0871 112.285 39.5971C112.732 39.0962 112.955 38.4592 112.955 37.6861C112.955 37.1525 112.851 36.6897 112.645 36.2977C112.449 35.8948 112.165 35.5845 111.795 35.3667C111.425 35.1381 110.995 35.0237 110.505 35.0237C110.015 35.0237 109.579 35.1381 109.198 35.3667C108.828 35.5954 108.534 35.9112 108.316 36.3141C108.109 36.7061 108.006 37.158 108.006 37.6697C108.006 38.1924 108.109 38.6552 108.316 39.0581C108.534 39.4501 108.833 39.7604 109.215 39.9891C109.596 40.2178 110.031 40.3321 110.521 40.3321ZM112.857 41.5571V39.4664L113.135 37.5717L112.857 35.6934V33.7987H114.343V41.5571H112.857ZM118.133 41.5571V33.7987H119.603V41.5571H118.133ZM118.868 32.247C118.596 32.247 118.373 32.1599 118.199 31.9857C118.024 31.8006 117.937 31.5719 117.937 31.2997C117.937 31.0383 118.024 30.8206 118.199 30.6463C118.373 30.4612 118.596 30.3687 118.868 30.3687C119.14 30.3687 119.364 30.4612 119.538 30.6463C119.712 30.8206 119.799 31.0383 119.799 31.2997C119.799 31.5719 119.712 31.8006 119.538 31.9857C119.364 32.1599 119.14 32.247 118.868 32.247ZM128.891 41.5571V37.0327C128.891 36.4447 128.706 35.9602 128.336 35.5791C127.965 35.1979 127.486 35.0074 126.898 35.0074C126.506 35.0074 126.158 35.0945 125.853 35.2687C125.548 35.4429 125.308 35.6825 125.134 35.9874C124.96 36.2923 124.873 36.6407 124.873 37.0327L124.269 36.6897C124.269 36.1017 124.399 35.5791 124.661 35.1217C124.922 34.6644 125.287 34.305 125.755 34.0437C126.223 33.7715 126.751 33.6354 127.339 33.6354C127.927 33.6354 128.445 33.7824 128.891 34.0764C129.348 34.3704 129.708 34.7569 129.969 35.2361C130.23 35.7043 130.361 36.2052 130.361 36.7387V41.5571H128.891ZM123.403 41.5571V33.7987H124.873V41.5571H123.403ZM134.001 41.5571V33.7987H135.471V41.5571H134.001ZM134.736 32.247C134.464 32.247 134.24 32.1599 134.066 31.9857C133.892 31.8006 133.805 31.5719 133.805 31.2997C133.805 31.0383 133.892 30.8206 134.066 30.6463C134.24 30.4612 134.464 30.3687 134.736 30.3687C135.008 30.3687 135.231 30.4612 135.406 30.6463C135.58 30.8206 135.667 31.0383 135.667 31.2997C135.667 31.5719 135.58 31.8006 135.406 31.9857C135.231 32.1599 135.008 32.247 134.736 32.247ZM144.759 41.5571V37.0327C144.759 36.4447 144.574 35.9602 144.203 35.5791C143.833 35.1979 143.354 35.0074 142.766 35.0074C142.374 35.0074 142.026 35.0945 141.721 35.2687C141.416 35.4429 141.176 35.6825 141.002 35.9874C140.828 36.2923 140.741 36.6407 140.741 37.0327L140.136 36.6897C140.136 36.1017 140.267 35.5791 140.528 35.1217C140.79 34.6644 141.154 34.305 141.623 34.0437C142.091 33.7715 142.619 33.6354 143.207 33.6354C143.795 33.6354 144.312 33.7824 144.759 34.0764C145.216 34.3704 145.575 34.7569 145.837 35.2361C146.098 35.7043 146.229 36.2052 146.229 36.7387V41.5571H144.759ZM139.271 41.5571V33.7987H140.741V41.5571H139.271ZM153.07 44.9708C152.275 44.9708 151.567 44.8238 150.947 44.5298C150.337 44.2358 149.847 43.822 149.477 43.2885L150.424 42.3248C150.74 42.7277 151.115 43.0326 151.551 43.2395C151.987 43.4573 152.504 43.5662 153.103 43.5662C153.898 43.5662 154.524 43.3538 154.981 42.9291C155.449 42.5154 155.683 41.9546 155.683 41.2468V39.3194L155.945 37.5717L155.683 35.8404V33.7987H157.153V41.2468C157.153 41.9872 156.979 42.6351 156.631 43.1905C156.293 43.7458 155.814 44.1814 155.193 44.4972C154.584 44.8129 153.876 44.9708 153.07 44.9708ZM153.07 41.4265C152.362 41.4265 151.725 41.2577 151.159 40.9201C150.604 40.5826 150.163 40.1198 149.836 39.5318C149.509 38.9329 149.346 38.2632 149.346 37.5227C149.346 36.7823 149.509 36.1235 149.836 35.5464C150.163 34.9584 150.604 34.4956 151.159 34.158C151.725 33.8096 152.362 33.6354 153.07 33.6354C153.68 33.6354 154.219 33.7551 154.687 33.9947C155.155 34.2343 155.526 34.5718 155.798 35.0074C156.081 35.4321 156.233 35.933 156.255 36.5101V38.5681C156.222 39.1343 156.065 39.6352 155.781 40.0708C155.509 40.4954 155.139 40.8276 154.671 41.0671C154.203 41.3067 153.669 41.4265 153.07 41.4265ZM153.364 40.0381C153.843 40.0381 154.262 39.9347 154.622 39.7278C154.992 39.5209 155.275 39.2323 155.471 38.8621C155.667 38.481 155.765 38.04 155.765 37.5391C155.765 37.0382 155.662 36.6026 155.455 36.2324C155.259 35.8513 154.981 35.5573 154.622 35.3504C154.262 35.1326 153.838 35.0237 153.348 35.0237C152.858 35.0237 152.428 35.1326 152.057 35.3504C151.687 35.5573 151.393 35.8513 151.175 36.2324C150.968 36.6026 150.865 37.0327 150.865 37.5227C150.865 38.0128 150.968 38.4483 151.175 38.8294C151.393 39.2105 151.687 39.51 152.057 39.7278C152.439 39.9347 152.874 40.0381 153.364 40.0381Z" fill="white"/>
</svg>
